<mxfile host="app.diagrams.net" modified="2024-08-08T18:04:03.330Z" agent="Mozilla/5.0 (Windows NT 10.0; Win64; x64) AppleWebKit/537.36 (KHTML, like Gecko) Chrome/127.0.0.0 Safari/537.36" etag="4QYKc3L_qwNCyQQy0j3b" version="24.7.1" type="github">
  <diagram id="prtHgNgQTEPvFCAcTncT" name="Page-1">
    <mxGraphModel dx="1502" dy="613" grid="1" gridSize="10" guides="1" tooltips="1" connect="1" arrows="1" fold="1" page="1" pageScale="1" pageWidth="827" pageHeight="1169" math="0" shadow="0">
      <root>
        <mxCell id="0" />
        <mxCell id="1" parent="0" />
        <mxCell id="7ZVsl8jsGqaRgyVuol15-31" value="" style="rounded=1;whiteSpace=wrap;html=1;" vertex="1" parent="1">
          <mxGeometry x="220" y="90" width="380" height="30" as="geometry" />
        </mxCell>
        <mxCell id="7ZVsl8jsGqaRgyVuol15-1" value="&lt;font style=&quot;font-size: 10px;&quot;&gt;Farmer/User&lt;/font&gt;" style="ellipse;whiteSpace=wrap;html=1;aspect=fixed;fillColor=#f5f5f5;fontColor=#333333;strokeColor=#666666;" vertex="1" parent="1">
          <mxGeometry x="180" y="160" width="70" height="70" as="geometry" />
        </mxCell>
        <mxCell id="7ZVsl8jsGqaRgyVuol15-2" value="Controllers(urls.py)&lt;div&gt;URL Dispatcher through Regex&amp;nbsp;&amp;nbsp;&lt;/div&gt;" style="rounded=1;whiteSpace=wrap;html=1;fillColor=#fff2cc;strokeColor=#d6b656;horizontal=1;labelPosition=center;verticalLabelPosition=middle;align=center;verticalAlign=middle;strokeWidth=2;shadow=1;labelBackgroundColor=none;fontColor=#df4e4e;" vertex="1" parent="1">
          <mxGeometry x="330" y="165" width="120" height="60" as="geometry" />
        </mxCell>
        <mxCell id="7ZVsl8jsGqaRgyVuol15-4" value="" style="endArrow=classic;html=1;rounded=0;entryX=0;entryY=0.5;entryDx=0;entryDy=0;" edge="1" parent="1" source="7ZVsl8jsGqaRgyVuol15-1" target="7ZVsl8jsGqaRgyVuol15-2">
          <mxGeometry width="50" height="50" relative="1" as="geometry">
            <mxPoint x="250" y="170" as="sourcePoint" />
            <mxPoint x="300" y="120" as="targetPoint" />
          </mxGeometry>
        </mxCell>
        <mxCell id="7ZVsl8jsGqaRgyVuol15-5" value="&lt;font style=&quot;font-size: 8px;&quot;&gt;Request Web Page&lt;/font&gt;" style="text;html=1;align=center;verticalAlign=middle;resizable=0;points=[];autosize=1;strokeColor=none;fillColor=none;" vertex="1" parent="1">
          <mxGeometry x="240" y="165" width="90" height="30" as="geometry" />
        </mxCell>
        <mxCell id="7ZVsl8jsGqaRgyVuol15-6" value="&lt;font face=&quot;Verdana&quot; color=&quot;#df4e4e&quot;&gt;View(Views.py)&lt;/font&gt;&lt;div&gt;&lt;font face=&quot;Verdana&quot; color=&quot;#df4e4e&quot;&gt;-Process Request&lt;/font&gt;&lt;/div&gt;&lt;div&gt;&lt;font face=&quot;Verdana&quot; color=&quot;#df4e4e&quot;&gt;-Fetch Educrop Template &amp;amp; send response&lt;/font&gt;&lt;/div&gt;" style="rounded=1;whiteSpace=wrap;html=1;fillColor=#fff2cc;strokeColor=#d6b656;textShadow=0;shadow=1;strokeWidth=2;" vertex="1" parent="1">
          <mxGeometry x="330" y="310" width="120" height="90" as="geometry" />
        </mxCell>
        <mxCell id="7ZVsl8jsGqaRgyVuol15-8" value="" style="endArrow=classic;html=1;rounded=0;exitX=0.5;exitY=1;exitDx=0;exitDy=0;entryX=0.5;entryY=0;entryDx=0;entryDy=0;" edge="1" parent="1" source="7ZVsl8jsGqaRgyVuol15-2" target="7ZVsl8jsGqaRgyVuol15-6">
          <mxGeometry width="50" height="50" relative="1" as="geometry">
            <mxPoint x="470" y="270" as="sourcePoint" />
            <mxPoint x="520" y="220" as="targetPoint" />
          </mxGeometry>
        </mxCell>
        <mxCell id="7ZVsl8jsGqaRgyVuol15-9" value="&lt;font style=&quot;font-size: 10px;&quot;&gt;URL Match&lt;/font&gt;" style="text;html=1;align=center;verticalAlign=middle;resizable=0;points=[];autosize=1;strokeColor=none;fillColor=none;rotation=90;shadow=0;" vertex="1" parent="1">
          <mxGeometry x="370" y="250" width="70" height="30" as="geometry" />
        </mxCell>
        <mxCell id="7ZVsl8jsGqaRgyVuol15-11" value="Templates(.html)&lt;div&gt;-Dynamic html files&lt;/div&gt;&lt;div&gt;(Educrop web page)&lt;/div&gt;" style="rounded=1;whiteSpace=wrap;html=1;fillColor=#fff2cc;strokeColor=#d6b656;horizontal=1;labelPosition=center;verticalLabelPosition=middle;align=center;verticalAlign=middle;strokeWidth=2;shadow=1;labelBackgroundColor=none;fontColor=#df4e4e;" vertex="1" parent="1">
          <mxGeometry x="551" y="325" width="120" height="60" as="geometry" />
        </mxCell>
        <mxCell id="7ZVsl8jsGqaRgyVuol15-13" value="&lt;div&gt;&lt;font style=&quot;font-size: 12px;&quot; face=&quot;Verdana&quot;&gt;&lt;br&gt;&lt;/font&gt;&lt;/div&gt;&lt;font style=&quot;font-size: 12px;&quot; face=&quot;Verdana&quot;&gt;&lt;div&gt;&lt;font style=&quot;font-size: 12px;&quot; face=&quot;Verdana&quot;&gt;&lt;br&gt;&lt;/font&gt;&lt;/div&gt;&lt;font color=&quot;#f51137&quot;&gt;Back End Database&lt;/font&gt;&lt;/font&gt;&lt;div style=&quot;&quot;&gt;&lt;font color=&quot;#1a1a1a&quot; style=&quot;font-size: 12px;&quot; face=&quot;Rd2KLzIoze4jZS2h-pce&quot;&gt;-Stores data to train ML Model&lt;/font&gt;&lt;/div&gt;" style="strokeWidth=2;html=1;shape=mxgraph.flowchart.database;whiteSpace=wrap;fillColor=#dae8fc;strokeColor=#6c8ebf;fontColor=#f505e1;labelPosition=center;verticalLabelPosition=middle;align=center;verticalAlign=middle;" vertex="1" parent="1">
          <mxGeometry x="570" y="445" width="90" height="120" as="geometry" />
        </mxCell>
        <mxCell id="7ZVsl8jsGqaRgyVuol15-14" value="&lt;font face=&quot;Verdana&quot; color=&quot;#df4e4e&quot;&gt;Model (models.py)&lt;/font&gt;&lt;div&gt;&lt;font face=&quot;Verdana&quot; color=&quot;#df4e4e&quot;&gt;-Defining ML model for Crop Yield Prediction&lt;/font&gt;&lt;/div&gt;" style="rounded=1;whiteSpace=wrap;html=1;fillColor=#fff2cc;strokeColor=#d6b656;textShadow=0;shadow=1;strokeWidth=2;" vertex="1" parent="1">
          <mxGeometry x="330" y="460" width="120" height="90" as="geometry" />
        </mxCell>
        <mxCell id="7ZVsl8jsGqaRgyVuol15-15" value="&lt;div&gt;&lt;font color=&quot;#f50c14&quot;&gt;&lt;br&gt;&lt;/font&gt;&lt;/div&gt;&lt;font color=&quot;#f50c14&quot;&gt;Web Server Database&lt;/font&gt;" style="strokeWidth=2;html=1;shape=mxgraph.flowchart.database;whiteSpace=wrap;fillColor=#dae8fc;strokeColor=#6c8ebf;fontColor=#f505e1;labelPosition=center;verticalLabelPosition=middle;align=center;verticalAlign=middle;" vertex="1" parent="1">
          <mxGeometry x="150" y="475" width="90" height="75" as="geometry" />
        </mxCell>
        <mxCell id="7ZVsl8jsGqaRgyVuol15-16" value="" style="endArrow=none;html=1;rounded=0;exitX=0;exitY=0.5;exitDx=0;exitDy=0;" edge="1" parent="1" source="7ZVsl8jsGqaRgyVuol15-6">
          <mxGeometry width="50" height="50" relative="1" as="geometry">
            <mxPoint x="240" y="375" as="sourcePoint" />
            <mxPoint x="210" y="355" as="targetPoint" />
          </mxGeometry>
        </mxCell>
        <mxCell id="7ZVsl8jsGqaRgyVuol15-17" value="&lt;font style=&quot;font-size: 10px;&quot;&gt;Send Webpage to user&lt;/font&gt;" style="text;html=1;align=center;verticalAlign=middle;resizable=0;points=[];autosize=1;strokeColor=none;fillColor=none;" vertex="1" parent="1">
          <mxGeometry x="208" y="328" width="130" height="30" as="geometry" />
        </mxCell>
        <mxCell id="7ZVsl8jsGqaRgyVuol15-18" value="" style="endArrow=classic;html=1;rounded=0;fontFamily=Verdana;fontSize=10;" edge="1" parent="1">
          <mxGeometry width="50" height="50" relative="1" as="geometry">
            <mxPoint x="210" y="356" as="sourcePoint" />
            <mxPoint x="210" y="230" as="targetPoint" />
          </mxGeometry>
        </mxCell>
        <mxCell id="7ZVsl8jsGqaRgyVuol15-19" value="" style="endArrow=classic;html=1;rounded=0;exitX=1;exitY=0.5;exitDx=0;exitDy=0;entryX=0;entryY=0.5;entryDx=0;entryDy=0;" edge="1" parent="1" source="7ZVsl8jsGqaRgyVuol15-6" target="7ZVsl8jsGqaRgyVuol15-11">
          <mxGeometry width="50" height="50" relative="1" as="geometry">
            <mxPoint x="480" y="340" as="sourcePoint" />
            <mxPoint x="530" y="290" as="targetPoint" />
          </mxGeometry>
        </mxCell>
        <mxCell id="7ZVsl8jsGqaRgyVuol15-20" value="&lt;span style=&quot;font-size: 10px;&quot;&gt;Request Web Page&lt;/span&gt;" style="text;html=1;align=center;verticalAlign=middle;resizable=0;points=[];autosize=1;strokeColor=none;fillColor=none;" vertex="1" parent="1">
          <mxGeometry x="444" y="328" width="110" height="30" as="geometry" />
        </mxCell>
        <mxCell id="7ZVsl8jsGqaRgyVuol15-21" value="" style="endArrow=classic;html=1;rounded=0;exitX=1;exitY=0.5;exitDx=0;exitDy=0;entryX=0;entryY=0.5;entryDx=0;entryDy=0;entryPerimeter=0;" edge="1" parent="1" source="7ZVsl8jsGqaRgyVuol15-14" target="7ZVsl8jsGqaRgyVuol15-13">
          <mxGeometry width="50" height="50" relative="1" as="geometry">
            <mxPoint x="470" y="510" as="sourcePoint" />
            <mxPoint x="520" y="460" as="targetPoint" />
          </mxGeometry>
        </mxCell>
        <mxCell id="7ZVsl8jsGqaRgyVuol15-22" value="&lt;span style=&quot;font-size: 10px;&quot;&gt;Save Request from DB&lt;/span&gt;" style="text;html=1;align=center;verticalAlign=middle;resizable=0;points=[];autosize=1;strokeColor=none;fillColor=none;" vertex="1" parent="1">
          <mxGeometry x="443" y="476" width="130" height="30" as="geometry" />
        </mxCell>
        <mxCell id="7ZVsl8jsGqaRgyVuol15-23" value="" style="endArrow=classic;html=1;rounded=0;exitX=0;exitY=0.5;exitDx=0;exitDy=0;entryX=1.004;entryY=0.421;entryDx=0;entryDy=0;entryPerimeter=0;" edge="1" parent="1" source="7ZVsl8jsGqaRgyVuol15-14" target="7ZVsl8jsGqaRgyVuol15-15">
          <mxGeometry width="50" height="50" relative="1" as="geometry">
            <mxPoint x="260" y="460" as="sourcePoint" />
            <mxPoint x="310" y="410" as="targetPoint" />
          </mxGeometry>
        </mxCell>
        <mxCell id="7ZVsl8jsGqaRgyVuol15-24" value="&lt;span style=&quot;font-size: 10px;&quot;&gt;Pulling out Data&lt;/span&gt;" style="text;html=1;align=center;verticalAlign=middle;resizable=0;points=[];autosize=1;strokeColor=none;fillColor=none;" vertex="1" parent="1">
          <mxGeometry x="243" y="482" width="90" height="30" as="geometry" />
        </mxCell>
        <mxCell id="7ZVsl8jsGqaRgyVuol15-25" value="" style="endArrow=classic;html=1;rounded=0;exitX=0.5;exitY=1;exitDx=0;exitDy=0;entryX=0.5;entryY=0;entryDx=0;entryDy=0;" edge="1" parent="1" source="7ZVsl8jsGqaRgyVuol15-6" target="7ZVsl8jsGqaRgyVuol15-14">
          <mxGeometry width="50" height="50" relative="1" as="geometry">
            <mxPoint x="450" y="435" as="sourcePoint" />
            <mxPoint x="500" y="385" as="targetPoint" />
          </mxGeometry>
        </mxCell>
        <mxCell id="7ZVsl8jsGqaRgyVuol15-27" value="&lt;span style=&quot;font-size: 10px;&quot;&gt;Retrieve Request Response&lt;/span&gt;" style="text;html=1;align=center;verticalAlign=middle;resizable=0;points=[];autosize=1;strokeColor=none;fillColor=none;" vertex="1" parent="1">
          <mxGeometry x="390" y="415" width="150" height="30" as="geometry" />
        </mxCell>
        <mxCell id="7ZVsl8jsGqaRgyVuol15-29" value="&lt;font style=&quot;font-size: 22px;&quot; color=&quot;#ff172e&quot;&gt;Block Diagram: Crop Yield Prediction&lt;/font&gt;" style="text;html=1;align=center;verticalAlign=middle;whiteSpace=wrap;rounded=0;" vertex="1" parent="1">
          <mxGeometry x="174" y="90" width="480" height="30" as="geometry" />
        </mxCell>
        <mxCell id="7ZVsl8jsGqaRgyVuol15-32" value="&lt;font color=&quot;#ff9e4a&quot;&gt;RBL&lt;font style=&quot;font-size: 14px;&quot;&gt;:&lt;/font&gt;&lt;/font&gt; GRP-14" style="text;html=1;align=center;verticalAlign=middle;whiteSpace=wrap;rounded=0;" vertex="1" parent="1">
          <mxGeometry x="510" y="120" width="90" height="30" as="geometry" />
        </mxCell>
      </root>
    </mxGraphModel>
  </diagram>
</mxfile>
